<svg class="svg-icon" style="width: 1em; height: 1em;vertical-align: middle;fill: currentColor;overflow: hidden;" viewBox="0 0 1024 1024" version="1.1" xmlns="http://www.w3.org/2000/svg"><path d="M155.988704 738.987734l-0.007163 0c-24.113187 0-46.610574-10.796904-61.720713-29.622668C79.149665 690.538279 73.53376 665.969721 78.858022 641.953747c6.519484-29.42824 29.764907-52.68185 59.208497-59.216683 30.026874-6.624884 60.801784 4.172019 79.642898 27.649733 15.110139 18.826787 20.726044 43.395346 15.401782 67.410296-6.519484 29.42824-29.764907 52.68185-59.216683 59.216683C167.966503 738.329748 161.940253 738.987734 155.988704 738.987734zM155.988704 611.388615c-3.730974 0-7.529487 0.418532-11.290137 1.255597-17.600867 3.90289-32.045857 18.34788-35.948747 35.948747-3.349281 15.102976-0.01535 29.877471 9.390881 41.600467 9.271154 11.543917 23.058159 18.168802 37.839817 18.168802l0.007163 0c3.723811 0 7.521301-0.418532 11.282974-1.255597 17.600867-3.90289 32.045857-18.34788 35.948747-35.948747 3.349281-15.102976 0.007163-29.891797-9.398044-41.600467C184.557366 617.998149 170.762175 611.388615 155.988704 611.388615z"  /><path d="M375.469464 519.992021l-0.007163 0c-24.113187 0-46.610574-10.796904-61.720713-29.622668-15.110139-18.826787-20.726044-43.395346-15.401782-67.411319 6.519484-29.42824 29.764907-52.68185 59.216683-59.216683 30.011524-6.609535 60.793598 4.187369 79.635735 27.64871 15.110139 18.826787 20.726044 43.395346 15.401782 67.411319-6.519484 29.42824-29.764907 52.68185-59.208497 59.216683C387.447263 519.334036 381.421013 519.992021 375.469464 519.992021zM375.469464 392.392902c-3.730974 0-7.529487 0.418532-11.290137 1.25662-17.600867 3.90289-32.045857 18.34788-35.948747 35.948747-3.349281 15.102976-0.01535 29.877471 9.390881 41.600467 9.271154 11.543917 23.058159 18.168802 37.848003 18.168802l0 0c3.723811 0 7.521301-0.418532 11.282974-1.25662 17.600867-3.90289 32.045857-18.34788 35.948747-35.948747 3.349281-15.102976 0.01535-29.891797-9.398044-41.600467C404.038126 399.017786 390.243959 392.392902 375.469464 392.392902z"  /><path d="M868.018459 443.190845l-0.007163 0c-24.112164 0-46.610574-10.796904-61.720713-29.622668-15.110139-18.826787-20.726044-43.395346-15.401782-67.411319 6.519484-29.42824 29.757744-52.68185 59.208497-59.216683 30.05655-6.639211 60.808948 4.172019 79.642898 27.64871 15.110139 18.826787 20.726044 43.395346 15.401782 67.411319-6.519484 29.42824-29.764907 52.68185-59.216683 59.216683C879.996259 442.532859 873.970008 443.190845 868.018459 443.190845zM868.018459 315.591725c-3.730974 0-7.529487 0.418532-11.290137 1.25662-17.600867 3.90289-32.045857 18.34788-35.94056 35.933397-3.357468 15.118326-0.022513 29.891797 9.383718 41.615816 9.271154 11.543917 23.058159 18.168802 37.839817 18.168802l0.007163 0c3.723811 0 7.521301-0.418532 11.282974-1.25662 17.600867-3.90289 32.045857-18.34788 35.948747-35.948747 3.349281-15.102976 0.007163-29.891797-9.398044-41.600467C896.588145 322.216609 882.792954 315.591725 868.018459 315.591725z"  /><path d="M642.145106 734.038002l-0.007163 0c-28.262694 0-54.565756-15.238053-68.651566-39.761586-14.781658-25.750477-13.981433-56.419987 2.190899-84.129072 5.248537-8.986675 12.748349-16.479323 21.698185-21.682835 14.370289-8.389064 29.436426-12.651135 44.763506-12.651135 28.262694 0 54.57292 15.252379 68.651566 39.791262 14.781658 25.750477 13.974269 56.419987-2.227738 84.143399-5.203512 8.911974-12.68081 16.389272-21.608134 21.608134C672.552649 729.776955 657.472186 734.038002 642.145106 734.038002zM642.136919 606.438882c-9.824763 0-19.701714 2.856048-29.346375 8.479115-4.343935 2.527566-8.127098 6.310729-10.66899 10.677177-10.489912 17.974373-11.245112 37.459147-2.078335 53.428863 8.642844 15.043624 24.77015 24.38948 42.094724 24.38948l0.007163 0c9.831926 0 19.708877-2.856048 29.361725-8.493441 4.381797-2.557242 8.052396-6.236028 10.609639-10.616802 10.519588-17.9887 11.282974-37.473473 2.116197-53.459562C675.595962 615.784738 659.46047 606.438882 642.136919 606.438882z"  /><path d="M705.996342 570.909691 682.953534 550.751582 790.140765 428.251597 813.183574 448.409706Z"  /><path d="M546.69622 618.387006 439.508989 526.512529 459.44197 503.274268 566.629201 595.148745Z"  /><path d="M229.590002 603.224678 209.985502 579.687612 301.861002 503.124865 321.464479 526.661931Z"  /></svg>
