<svg class="svg-icon" style="width: 1em; height: 1em;vertical-align: middle;fill: currentColor;overflow: hidden;" viewBox="0 0 1024 1024" version="1.1" xmlns="http://www.w3.org/2000/svg"><path d="M340.1 127.4c52.7-10.2 110-15.4 171.9-15.4 61.9 0 119.2 5.2 171.9 15.4s94.4 24.2 125 41.8c30.6 17.6 46 36.6 46 57.2v57.2c0 20.6-15.3 39.6-46 57.2s-72.3 31.5-125 41.8c-52.7 10.1-110 15.2-171.9 15.2-61.9 0-119.2-5.2-171.9-15.4s-94.4-24.2-125-41.8c-30.7-17.6-46-36.6-46-57.2v-57.2c0-20.6 15.3-39.6 46-57.2 30.7-17.4 72.3-31.3 125-41.6z m-25.8 308.2c61.3 12.8 127.2 19.2 197.7 19.2s136.4-6.4 197.7-19.2 109.7-31.7 145.1-56.7v75.9c0 20.6-15.3 39.6-46 57.2s-72.3 31.5-125 41.8C631.2 564 573.9 569.1 512 569.1c-61.9 0-119.2-5.2-171.9-15.4s-94.4-24.2-125-41.8c-30.7-17.6-46-36.6-46-57.2v-75.9c35.5 25.2 83.9 44.1 145.2 56.8z m0 171.5c61.3 12.8 127.2 19.2 197.7 19.2s136.4-6.4 197.7-19.2c61.3-12.8 109.7-31.7 145.1-56.7v75.9c0 20.6-15.3 39.6-46 57.2s-72.3 31.5-125 41.8c-52.7 10.3-109.9 15.4-171.8 15.4-61.9 0-119.2-5.2-171.9-15.4s-94.3-24.2-125-41.8c-30.7-17.6-46-36.6-46-57.2v-75.9c35.5 25 83.9 43.9 145.2 56.7z m0 171.4c61.3 12.8 127.2 19.2 197.7 19.2s136.4-6.4 197.7-19.2c61.3-12.8 109.7-31.7 145.1-56.7v75.9c0 20.6-15.3 39.6-46 57.2s-72.3 31.5-125 41.8S573.9 912 512 912c-61.9 0-119.2-5.2-171.9-15.4s-94.4-24.2-125-41.8c-30.7-17.6-46-36.6-46-57.2v-75.9c35.5 25.1 83.9 44 145.2 56.8z"  /></svg>
