<svg class="svg-icon" style="width: 1em; height: 1em;vertical-align: middle;fill: currentColor;overflow: hidden;" viewBox="0 0 1024 1024" version="1.1" xmlns="http://www.w3.org/2000/svg"><path d="M21.4 949.1c-5.6 0-11.2-2.3-15.1-6.3-4-4-6.3-9.5-6.3-15.1V104.2c0-11.8 9.6-21.4 21.4-21.4 11.8 0 21.4 9.6 21.4 21.4v802.1h959.8c11.8 0 21.4 9.6 21.4 21.4 0 11.8-9.6 21.4-21.4 21.4H21.4z" fill="#626262" /><path d="M272.3 808.6c0 22.8-18.6 41.4-41.4 41.4h-79.1c-22.8 0-41.5-18.6-41.5-41.4V721c0-22.8 18.7-41.4 41.5-41.4h79.1c22.8 0 41.4 18.6 41.4 41.4v87.6zM478.2 808.6c0 22.8-18.7 41.4-41.5 41.4h-79.1c-22.8 0-41.5-18.6-41.5-41.4v-275c0-22.8 18.7-41.4 41.5-41.4h79.1c22.8 0 41.5 18.6 41.5 41.4v275z" fill="#626262" /><path d="M900.4 806.3c0 24-19.7 43.7-43.7 43.7h-74.5c-24 0-43.7-19.7-43.7-43.7v-358c0-24 19.6-43.7 43.7-43.7h74.5c24 0 43.7 19.7 43.7 43.7v358z" fill="#54A8B9" /><path d="M684 808.6c0 22.8-18.7 41.4-41.5 41.4h-79.1c-22.8 0-41.5-18.6-41.5-41.4V618.7c0-22.8 18.7-41.4 41.5-41.4h79.1c22.8 0 41.5 18.6 41.5 41.4v189.9z" fill="#626262" /><path d="M867.3 148l-157.6 17.2 51.9 52L590.7 426 413.3 262.1c-12.1-11.2-30.9-11.3-43.1-0.3L109.5 497.2c-13.1 11.8-14.1 32.1-2.3 45.2 6.3 7 15 10.5 23.8 10.5 7.7 0 15.3-2.7 21.4-8.2l239-215.8 180.8 167.2c6.5 6 15.2 9 23.9 8.4 8.7-0.6 17-4.9 22.5-11.6L807 262.6l43.1 43.1L867.3 148z" fill="#F79633" /></svg>
